<?xml version="1.0" encoding="UTF-8" standalone="no"?>
<!DOCTYPE svg PUBLIC "-//W3C//DTD SVG 1.1//EN"
 "http://www.w3.org/Graphics/SVG/1.1/DTD/svg11.dtd">
<!-- Generated by graphviz version 2.26.3 (20100126.1600)
 -->
<!-- Title: G Pages: 1 -->
<svg width="484pt" height="400pt"
 viewBox="0.00 0.00 484.00 400.00" xmlns="http://www.w3.org/2000/svg" xmlns:xlink="http://www.w3.org/1999/xlink">
<g id="graph1" class="graph" transform="scale(1 1) rotate(0) translate(4 396)">
<title>G</title>
<polygon fill="white" stroke="white" points="-4,5 -4,-396 481,-396 481,5 -4,5"/>
<g id="graph2" class="cluster"><title>cluster_Global</title>
<polyline fill="none" stroke="gray" points="20,-44 456,-44 "/>
<path fill="none" stroke="gray" d="M456,-44C462,-44 468,-50 468,-56"/>
<polyline fill="none" stroke="gray" points="468,-56 468,-372 "/>
<path fill="none" stroke="gray" d="M468,-372C468,-378 462,-384 456,-384"/>
<polyline fill="none" stroke="gray" points="456,-384 20,-384 "/>
<path fill="none" stroke="gray" d="M20,-384C14,-384 8,-378 8,-372"/>
<polyline fill="none" stroke="gray" points="8,-372 8,-56 "/>
<path fill="none" stroke="gray" d="M8,-56C8,-50 14,-44 20,-44"/>
<text text-anchor="middle" x="238" y="-370.1" font-family="Times Roman,serif" font-size="11.00" fill="gray">Global</text>
</g>
<g id="graph3" class="cluster"><title>cluster_\Geocaching</title>
<polyline fill="none" stroke="gray" points="28,-52 448,-52 "/>
<path fill="none" stroke="gray" d="M448,-52C454,-52 460,-58 460,-64"/>
<polyline fill="none" stroke="gray" points="460,-64 460,-342 "/>
<path fill="none" stroke="gray" d="M460,-342C460,-348 454,-354 448,-354"/>
<polyline fill="none" stroke="gray" points="448,-354 28,-354 "/>
<path fill="none" stroke="gray" d="M28,-354C22,-354 16,-348 16,-342"/>
<polyline fill="none" stroke="gray" points="16,-342 16,-64 "/>
<path fill="none" stroke="gray" d="M16,-64C16,-58 22,-52 28,-52"/>
<text text-anchor="middle" x="238" y="-340.1" font-family="Times Roman,serif" font-size="11.00" fill="gray">Geocaching</text>
</g>
<g id="graph4" class="cluster"><title>cluster_\Geocaching\OAuth</title>
<polyline fill="none" stroke="gray" points="268,-60 440,-60 "/>
<path fill="none" stroke="gray" d="M440,-60C446,-60 452,-66 452,-72"/>
<polyline fill="none" stroke="gray" points="452,-72 452,-176 "/>
<path fill="none" stroke="gray" d="M452,-176C452,-182 446,-188 440,-188"/>
<polyline fill="none" stroke="gray" points="440,-188 268,-188 "/>
<path fill="none" stroke="gray" d="M268,-188C262,-188 256,-182 256,-176"/>
<polyline fill="none" stroke="gray" points="256,-176 256,-72 "/>
<path fill="none" stroke="gray" d="M256,-72C256,-66 262,-60 268,-60"/>
<text text-anchor="middle" x="354" y="-174.1" font-family="Times Roman,serif" font-size="11.00" fill="gray">OAuth</text>
</g>
<g id="graph5" class="cluster"><title>cluster_\Geocaching\Api</title>
<polyline fill="none" stroke="gray" points="36,-196 433,-196 "/>
<path fill="none" stroke="gray" d="M433,-196C439,-196 445,-202 445,-208"/>
<polyline fill="none" stroke="gray" points="445,-208 445,-312 "/>
<path fill="none" stroke="gray" d="M445,-312C445,-318 439,-324 433,-324"/>
<polyline fill="none" stroke="gray" points="433,-324 36,-324 "/>
<path fill="none" stroke="gray" d="M36,-324C30,-324 24,-318 24,-312"/>
<polyline fill="none" stroke="gray" points="24,-312 24,-208 "/>
<path fill="none" stroke="gray" d="M24,-208C24,-202 30,-196 36,-196"/>
<text text-anchor="middle" x="234.5" y="-310.1" font-family="Times Roman,serif" font-size="11.00" fill="gray">Api</text>
</g>
<!-- \\Geocaching\\OAuth\\GeocachingOAuthException -->
<g id="node4" class="node"><title>\\Geocaching\\OAuth\\GeocachingOAuthException</title>
<polygon fill="none" stroke="black" points="443,-158 265,-158 265,-122 443,-122 443,-158"/>
<text text-anchor="middle" x="354" y="-137.1" font-family="Courier,monospace" font-size="11.00">GeocachingOAuthException</text>
</g>
<!-- \\Exception -->
<g id="node11" class="node"><title>\\Exception</title>
<ellipse fill="none" stroke="black" cx="112" cy="-18" rx="61.8445" ry="18"/>
<text text-anchor="middle" x="112" y="-13.9" font-family="Times Roman,serif" font-size="14.00" fill="gray">\Exception</text>
</g>
<!-- \\Geocaching\\OAuth\\GeocachingOAuthException&#45;&gt;\\Exception -->
<g id="edge6" class="edge"><title>\\Geocaching\\OAuth\\GeocachingOAuthException&#45;&gt;\\Exception</title>
<path fill="none" stroke="black" d="M279.018,-121.986C271.121,-119.31 263.312,-116.318 256,-113 213.488,-93.7078 169.359,-62.6886 141.343,-41.3756"/>
<polygon fill="none" stroke="black" points="143.245,-38.4226 133.185,-35.0966 138.975,-43.9697 143.245,-38.4226"/>
</g>
<!-- \\Geocaching\\OAuth\\OAuth -->
<g id="node5" class="node"><title>\\Geocaching\\OAuth\\OAuth</title>
<polygon fill="none" stroke="black" points="381,-104 327,-104 327,-68 381,-68 381,-104"/>
<text text-anchor="middle" x="354" y="-83.1" font-family="Courier,monospace" font-size="11.00">OAuth</text>
</g>
<!-- \\Geocaching\\Api\\GeocachingApiException -->
<g id="node7" class="node"><title>\\Geocaching\\Api\\GeocachingApiException</title>
<polygon fill="none" stroke="black" points="436,-240 272,-240 272,-204 436,-204 436,-240"/>
<text text-anchor="middle" x="354" y="-219.1" font-family="Courier,monospace" font-size="11.00">GeocachingApiException</text>
</g>
<!-- \\Geocaching\\Api\\GeocachingApiException&#45;&gt;\\Exception -->
<g id="edge8" class="edge"><title>\\Geocaching\\Api\\GeocachingApiException&#45;&gt;\\Exception</title>
<path fill="none" stroke="black" d="M278.608,-203.942C270.663,-200.589 262.957,-196.641 256,-192 197.51,-152.985 150.312,-83.2632 127.281,-44.989"/>
<polygon fill="none" stroke="black" points="130.054,-42.8027 121.954,-35.9737 124.028,-46.3636 130.054,-42.8027"/>
</g>
<!-- \\Geocaching\\Api\\GeocachingApi -->
<g id="node8" class="node"><title>\\Geocaching\\Api\\GeocachingApi</title>
<polygon fill="none" stroke="black" points="406,-294 302,-294 302,-258 406,-258 406,-294"/>
<text text-anchor="middle" x="354" y="-273.1" font-family="Courier,monospace" font-size="11.00">GeocachingApi</text>
</g>
<!-- \\Geocaching\\Api\\AbstractGeocachingApi -->
<g id="node9" class="node"><title>\\Geocaching\\Api\\AbstractGeocachingApi</title>
<polygon fill="none" stroke="black" points="191,-294 33,-294 33,-258 191,-258 191,-294"/>
<text text-anchor="start" x="78" y="-281.433" font-family="Courier,monospace" font-size="11.00">«abstract»</text>
<text text-anchor="start" x="41" y="-268.233" font-family="Courier,monospace" font-size="11.00">AbstractGeocachingApi</text>
</g>
<!-- \\Geocaching\\Api\\GeocachingApi&#45;&gt;\\Geocaching\\Api\\AbstractGeocachingApi -->
<g id="edge10" class="edge"><title>\\Geocaching\\Api\\GeocachingApi&#45;&gt;\\Geocaching\\Api\\AbstractGeocachingApi</title>
<path fill="none" stroke="black" d="M301.788,-276C272.7,-276 235.67,-276 202.056,-276"/>
<polygon fill="none" stroke="black" points="201.746,-272.5 191.746,-276 201.746,-279.5 201.746,-272.5"/>
</g>
</g>
</svg>
