<?xml version="1.0" encoding="UTF-8" standalone="no"?>
<!DOCTYPE svg PUBLIC "-//W3C//DTD SVG 1.1//EN"
 "http://www.w3.org/Graphics/SVG/1.1/DTD/svg11.dtd">
<!-- Generated by graphviz version 2.26.3 (20100126.1600)
 -->
<!-- Title: G Pages: 1 -->
<svg width="284pt" height="392pt"
 viewBox="0.00 0.00 284.00 392.00" xmlns="http://www.w3.org/2000/svg" xmlns:xlink="http://www.w3.org/1999/xlink">
<g id="graph1" class="graph" transform="scale(1 1) rotate(0) translate(4 388)">
<title>G</title>
<polygon fill="white" stroke="white" points="-4,5 -4,-388 281,-388 281,5 -4,5"/>
<g id="graph2" class="cluster"><title>cluster_Global</title>
<polyline fill="none" stroke="gray" points="20,-8 256,-8 "/>
<path fill="none" stroke="gray" d="M256,-8C262,-8 268,-14 268,-20"/>
<polyline fill="none" stroke="gray" points="268,-20 268,-364 "/>
<path fill="none" stroke="gray" d="M268,-364C268,-370 262,-376 256,-376"/>
<polyline fill="none" stroke="gray" points="256,-376 20,-376 "/>
<path fill="none" stroke="gray" d="M20,-376C14,-376 8,-370 8,-364"/>
<polyline fill="none" stroke="gray" points="8,-364 8,-20 "/>
<path fill="none" stroke="gray" d="M8,-20C8,-14 14,-8 20,-8"/>
<text text-anchor="middle" x="138" y="-362.1" font-family="Times Roman,serif" font-size="11.00" fill="gray">Global</text>
</g>
<g id="graph3" class="cluster"><title>cluster_\Geocaching</title>
<polyline fill="none" stroke="gray" points="28,-16 248,-16 "/>
<path fill="none" stroke="gray" d="M248,-16C254,-16 260,-22 260,-28"/>
<polyline fill="none" stroke="gray" points="260,-28 260,-334 "/>
<path fill="none" stroke="gray" d="M260,-334C260,-340 254,-346 248,-346"/>
<polyline fill="none" stroke="gray" points="248,-346 28,-346 "/>
<path fill="none" stroke="gray" d="M28,-346C22,-346 16,-340 16,-334"/>
<polyline fill="none" stroke="gray" points="16,-334 16,-28 "/>
<path fill="none" stroke="gray" d="M16,-28C16,-22 22,-16 28,-16"/>
<text text-anchor="middle" x="138" y="-332.1" font-family="Times Roman,serif" font-size="11.00" fill="gray">Geocaching</text>
</g>
<g id="graph4" class="cluster"><title>cluster_\Geocaching\Api</title>
<polyline fill="none" stroke="gray" points="36,-188 236,-188 "/>
<path fill="none" stroke="gray" d="M236,-188C242,-188 248,-194 248,-200"/>
<polyline fill="none" stroke="gray" points="248,-200 248,-304 "/>
<path fill="none" stroke="gray" d="M248,-304C248,-310 242,-316 236,-316"/>
<polyline fill="none" stroke="gray" points="236,-316 36,-316 "/>
<path fill="none" stroke="gray" d="M36,-316C30,-316 24,-310 24,-304"/>
<polyline fill="none" stroke="gray" points="24,-304 24,-200 "/>
<path fill="none" stroke="gray" d="M24,-200C24,-194 30,-188 36,-188"/>
<text text-anchor="middle" x="136" y="-302.1" font-family="Times Roman,serif" font-size="11.00" fill="gray">Api</text>
</g>
<g id="graph5" class="cluster"><title>cluster_\Geocaching\Log</title>
<polyline fill="none" stroke="gray" points="186,-106 240,-106 "/>
<path fill="none" stroke="gray" d="M240,-106C246,-106 252,-112 252,-118"/>
<polyline fill="none" stroke="gray" points="252,-118 252,-168 "/>
<path fill="none" stroke="gray" d="M252,-168C252,-174 246,-180 240,-180"/>
<polyline fill="none" stroke="gray" points="240,-180 186,-180 "/>
<path fill="none" stroke="gray" d="M186,-180C180,-180 174,-174 174,-168"/>
<polyline fill="none" stroke="gray" points="174,-168 174,-118 "/>
<path fill="none" stroke="gray" d="M174,-118C174,-112 180,-106 186,-106"/>
<text text-anchor="middle" x="213" y="-166.1" font-family="Times Roman,serif" font-size="11.00" fill="gray">Log</text>
</g>
<g id="graph6" class="cluster"><title>cluster_\Geocaching\OAuth</title>
<polyline fill="none" stroke="gray" points="190,-24 236,-24 "/>
<path fill="none" stroke="gray" d="M236,-24C242,-24 248,-30 248,-36"/>
<polyline fill="none" stroke="gray" points="248,-36 248,-86 "/>
<path fill="none" stroke="gray" d="M248,-86C248,-92 242,-98 236,-98"/>
<polyline fill="none" stroke="gray" points="236,-98 190,-98 "/>
<path fill="none" stroke="gray" d="M190,-98C184,-98 178,-92 178,-86"/>
<polyline fill="none" stroke="gray" points="178,-86 178,-36 "/>
<path fill="none" stroke="gray" d="M178,-36C178,-30 184,-24 190,-24"/>
<text text-anchor="middle" x="213" y="-84.1" font-family="Times Roman,serif" font-size="11.00" fill="gray">OAuth</text>
</g>
<!-- \\Geocaching\\Api\\Json -->
<g id="node4" class="node"><title>\\Geocaching\\Api\\Json</title>
<polygon fill="none" stroke="black" points="240,-286 186,-286 186,-250 240,-250 240,-286"/>
<text text-anchor="middle" x="213" y="-265.1" font-family="Times Roman,serif" font-size="11.00">Json</text>
</g>
<!-- \\Geocaching\\Api\\Api -->
<g id="node5" class="node"><title>\\Geocaching\\Api\\Api</title>
<polygon fill="none" stroke="black" points="109,-259 33,-259 33,-223 109,-223 109,-259"/>
<text text-anchor="start" x="41" y="-246.433" font-family="Times Roman,serif" font-size="11.00">«abstract»</text>
<text text-anchor="start" x="62.5" y="-233.233" font-family="Times Roman,serif" font-size="11.00">Api</text>
</g>
<!-- \\Geocaching\\Api\\Json&#45;&gt;\\Geocaching\\Api\\Api -->
<g id="edge7" class="edge"><title>\\Geocaching\\Api\\Json&#45;&gt;\\Geocaching\\Api\\Api</title>
<path fill="none" stroke="black" d="M185.957,-262.858C167.255,-259.302 141.846,-254.471 119.671,-250.254"/>
<polygon fill="none" stroke="black" points="120.224,-246.797 109.746,-248.367 118.917,-253.674 120.224,-246.797"/>
</g>
<!-- \\Geocaching\\Api\\Xml -->
<g id="node6" class="node"><title>\\Geocaching\\Api\\Xml</title>
<polygon fill="none" stroke="black" points="240,-232 186,-232 186,-196 240,-196 240,-232"/>
<text text-anchor="middle" x="213" y="-211.1" font-family="Times Roman,serif" font-size="11.00">Xml</text>
</g>
<!-- \\Geocaching\\Api\\Xml&#45;&gt;\\Geocaching\\Api\\Api -->
<g id="edge9" class="edge"><title>\\Geocaching\\Api\\Xml&#45;&gt;\\Geocaching\\Api\\Api</title>
<path fill="none" stroke="black" d="M185.957,-219.142C167.255,-222.698 141.846,-227.529 119.671,-231.746"/>
<polygon fill="none" stroke="black" points="118.917,-228.326 109.746,-233.633 120.224,-235.203 118.917,-228.326"/>
</g>
<!-- \\Geocaching\\Log\\KLogger -->
<g id="node8" class="node"><title>\\Geocaching\\Log\\KLogger</title>
<polygon fill="none" stroke="black" points="244,-150 182,-150 182,-114 244,-114 244,-150"/>
<text text-anchor="middle" x="213" y="-129.1" font-family="Times Roman,serif" font-size="11.00">KLogger</text>
</g>
<!-- \\Geocaching\\OAuth\\OAuth -->
<g id="node10" class="node"><title>\\Geocaching\\OAuth\\OAuth</title>
<polygon fill="none" stroke="black" points="240,-68 186,-68 186,-32 240,-32 240,-68"/>
<text text-anchor="middle" x="213" y="-47.1" font-family="Times Roman,serif" font-size="11.00">OAuth</text>
</g>
</g>
</svg>
