<?xml version="1.0" encoding="UTF-8" standalone="no"?>
<!DOCTYPE svg PUBLIC "-//W3C//DTD SVG 1.1//EN"
 "http://www.w3.org/Graphics/SVG/1.1/DTD/svg11.dtd">
<!-- Generated by graphviz version 2.26.3 (20100126.1600)
 -->
<!-- Title: G Pages: 1 -->
<svg width="386pt" height="256pt"
 viewBox="0.00 0.00 386.00 256.00" xmlns="http://www.w3.org/2000/svg" xmlns:xlink="http://www.w3.org/1999/xlink">
<g id="graph1" class="graph" transform="scale(1 1) rotate(0) translate(4 252)">
<title>G</title>
<polygon fill="white" stroke="white" points="-4,5 -4,-252 383,-252 383,5 -4,5"/>
<g id="graph2" class="cluster"><title>cluster_Global</title>
<polyline fill="none" stroke="gray" points="20,-8 358,-8 "/>
<path fill="none" stroke="gray" d="M358,-8C364,-8 370,-14 370,-20"/>
<polyline fill="none" stroke="gray" points="370,-20 370,-228 "/>
<path fill="none" stroke="gray" d="M370,-228C370,-234 364,-240 358,-240"/>
<polyline fill="none" stroke="gray" points="358,-240 20,-240 "/>
<path fill="none" stroke="gray" d="M20,-240C14,-240 8,-234 8,-228"/>
<polyline fill="none" stroke="gray" points="8,-228 8,-20 "/>
<path fill="none" stroke="gray" d="M8,-20C8,-14 14,-8 20,-8"/>
<text text-anchor="middle" x="189" y="-226.1" font-family="Times Roman,serif" font-size="11.00" fill="gray">Global</text>
</g>
<g id="graph3" class="cluster"><title>cluster_\Geocaching</title>
<polyline fill="none" stroke="gray" points="28,-16 350,-16 "/>
<path fill="none" stroke="gray" d="M350,-16C356,-16 362,-22 362,-28"/>
<polyline fill="none" stroke="gray" points="362,-28 362,-198 "/>
<path fill="none" stroke="gray" d="M362,-198C362,-204 356,-210 350,-210"/>
<polyline fill="none" stroke="gray" points="350,-210 28,-210 "/>
<path fill="none" stroke="gray" d="M28,-210C22,-210 16,-204 16,-198"/>
<polyline fill="none" stroke="gray" points="16,-198 16,-28 "/>
<path fill="none" stroke="gray" d="M16,-28C16,-22 22,-16 28,-16"/>
<text text-anchor="middle" x="189" y="-196.1" font-family="Times Roman,serif" font-size="11.00" fill="gray">Geocaching</text>
</g>
<g id="graph4" class="cluster"><title>cluster_\Geocaching\Api</title>
<polyline fill="none" stroke="gray" points="36,-106 342,-106 "/>
<path fill="none" stroke="gray" d="M342,-106C348,-106 354,-112 354,-118"/>
<polyline fill="none" stroke="gray" points="354,-118 354,-168 "/>
<path fill="none" stroke="gray" d="M354,-168C354,-174 348,-180 342,-180"/>
<polyline fill="none" stroke="gray" points="342,-180 36,-180 "/>
<path fill="none" stroke="gray" d="M36,-180C30,-180 24,-174 24,-168"/>
<polyline fill="none" stroke="gray" points="24,-168 24,-118 "/>
<path fill="none" stroke="gray" d="M24,-118C24,-112 30,-106 36,-106"/>
<text text-anchor="middle" x="189" y="-166.1" font-family="Times Roman,serif" font-size="11.00" fill="gray">Api</text>
</g>
<g id="graph5" class="cluster"><title>cluster_\Geocaching\OAuth</title>
<polyline fill="none" stroke="gray" points="274,-24 320,-24 "/>
<path fill="none" stroke="gray" d="M320,-24C326,-24 332,-30 332,-36"/>
<polyline fill="none" stroke="gray" points="332,-36 332,-86 "/>
<path fill="none" stroke="gray" d="M332,-86C332,-92 326,-98 320,-98"/>
<polyline fill="none" stroke="gray" points="320,-98 274,-98 "/>
<path fill="none" stroke="gray" d="M274,-98C268,-98 262,-92 262,-86"/>
<polyline fill="none" stroke="gray" points="262,-86 262,-36 "/>
<path fill="none" stroke="gray" d="M262,-36C262,-30 268,-24 274,-24"/>
<text text-anchor="middle" x="297" y="-84.1" font-family="Times Roman,serif" font-size="11.00" fill="gray">OAuth</text>
</g>
<!-- \\Geocaching\\Api\\GeocachingApi -->
<g id="node4" class="node"><title>\\Geocaching\\Api\\GeocachingApi</title>
<polygon fill="none" stroke="black" points="345,-150 249,-150 249,-114 345,-114 345,-150"/>
<text text-anchor="middle" x="297" y="-129.1" font-family="Times Roman,serif" font-size="11.00">GeocachingApi</text>
</g>
<!-- \\Geocaching\\Api\\AbstractGeocachingApi -->
<g id="node5" class="node"><title>\\Geocaching\\Api\\AbstractGeocachingApi</title>
<polygon fill="none" stroke="black" points="176,-150 32,-150 32,-114 176,-114 176,-150"/>
<text text-anchor="start" x="74" y="-137.433" font-family="Times Roman,serif" font-size="11.00">«abstract»</text>
<text text-anchor="start" x="40.5" y="-124.233" font-family="Times Roman,serif" font-size="11.00">AbstractGeocachingApi</text>
</g>
<!-- \\Geocaching\\Api\\GeocachingApi&#45;&gt;\\Geocaching\\Api\\AbstractGeocachingApi -->
<g id="edge6" class="edge"><title>\\Geocaching\\Api\\GeocachingApi&#45;&gt;\\Geocaching\\Api\\AbstractGeocachingApi</title>
<path fill="none" stroke="black" d="M248.298,-132C229.489,-132 207.438,-132 186.315,-132"/>
<polygon fill="none" stroke="black" points="186.038,-128.5 176.038,-132 186.038,-135.5 186.038,-128.5"/>
</g>
<!-- \\Geocaching\\OAuth\\OAuth -->
<g id="node7" class="node"><title>\\Geocaching\\OAuth\\OAuth</title>
<polygon fill="none" stroke="black" points="324,-68 270,-68 270,-32 324,-32 324,-68"/>
<text text-anchor="middle" x="297" y="-47.1" font-family="Times Roman,serif" font-size="11.00">OAuth</text>
</g>
</g>
</svg>
