<?xml version="1.0" encoding="UTF-8" standalone="no"?>
<!DOCTYPE svg PUBLIC "-//W3C//DTD SVG 1.1//EN"
 "http://www.w3.org/Graphics/SVG/1.1/DTD/svg11.dtd">
<!-- Generated by graphviz version 2.26.3 (20100126.1600)
 -->
<!-- Title: G Pages: 1 -->
<svg width="408pt" height="256pt"
 viewBox="0.00 0.00 408.00 256.00" xmlns="http://www.w3.org/2000/svg" xmlns:xlink="http://www.w3.org/1999/xlink">
<g id="graph1" class="graph" transform="scale(1 1) rotate(0) translate(4 252)">
<title>G</title>
<polygon fill="white" stroke="white" points="-4,5 -4,-252 405,-252 405,5 -4,5"/>
<g id="graph2" class="cluster"><title>cluster_Global</title>
<polyline fill="none" stroke="gray" points="20,-8 380,-8 "/>
<path fill="none" stroke="gray" d="M380,-8C386,-8 392,-14 392,-20"/>
<polyline fill="none" stroke="gray" points="392,-20 392,-228 "/>
<path fill="none" stroke="gray" d="M392,-228C392,-234 386,-240 380,-240"/>
<polyline fill="none" stroke="gray" points="380,-240 20,-240 "/>
<path fill="none" stroke="gray" d="M20,-240C14,-240 8,-234 8,-228"/>
<polyline fill="none" stroke="gray" points="8,-228 8,-20 "/>
<path fill="none" stroke="gray" d="M8,-20C8,-14 14,-8 20,-8"/>
<text text-anchor="middle" x="200" y="-226.1" font-family="Times Roman,serif" font-size="11.00" fill="gray">Global</text>
</g>
<g id="graph3" class="cluster"><title>cluster_\Geocaching</title>
<polyline fill="none" stroke="gray" points="28,-16 372,-16 "/>
<path fill="none" stroke="gray" d="M372,-16C378,-16 384,-22 384,-28"/>
<polyline fill="none" stroke="gray" points="384,-28 384,-198 "/>
<path fill="none" stroke="gray" d="M384,-198C384,-204 378,-210 372,-210"/>
<polyline fill="none" stroke="gray" points="372,-210 28,-210 "/>
<path fill="none" stroke="gray" d="M28,-210C22,-210 16,-204 16,-198"/>
<polyline fill="none" stroke="gray" points="16,-198 16,-28 "/>
<path fill="none" stroke="gray" d="M16,-28C16,-22 22,-16 28,-16"/>
<text text-anchor="middle" x="200" y="-196.1" font-family="Times Roman,serif" font-size="11.00" fill="gray">Geocaching</text>
</g>
<g id="graph4" class="cluster"><title>cluster_\Geocaching\Api</title>
<polyline fill="none" stroke="gray" points="36,-106 364,-106 "/>
<path fill="none" stroke="gray" d="M364,-106C370,-106 376,-112 376,-118"/>
<polyline fill="none" stroke="gray" points="376,-118 376,-168 "/>
<path fill="none" stroke="gray" d="M376,-168C376,-174 370,-180 364,-180"/>
<polyline fill="none" stroke="gray" points="364,-180 36,-180 "/>
<path fill="none" stroke="gray" d="M36,-180C30,-180 24,-174 24,-168"/>
<polyline fill="none" stroke="gray" points="24,-168 24,-118 "/>
<path fill="none" stroke="gray" d="M24,-118C24,-112 30,-106 36,-106"/>
<text text-anchor="middle" x="200" y="-166.1" font-family="Times Roman,serif" font-size="11.00" fill="gray">Api</text>
</g>
<g id="graph5" class="cluster"><title>cluster_\Geocaching\OAuth</title>
<polyline fill="none" stroke="gray" points="293,-24 339,-24 "/>
<path fill="none" stroke="gray" d="M339,-24C345,-24 351,-30 351,-36"/>
<polyline fill="none" stroke="gray" points="351,-36 351,-86 "/>
<path fill="none" stroke="gray" d="M351,-86C351,-92 345,-98 339,-98"/>
<polyline fill="none" stroke="gray" points="339,-98 293,-98 "/>
<path fill="none" stroke="gray" d="M293,-98C287,-98 281,-92 281,-86"/>
<polyline fill="none" stroke="gray" points="281,-86 281,-36 "/>
<path fill="none" stroke="gray" d="M281,-36C281,-30 287,-24 293,-24"/>
<text text-anchor="middle" x="316" y="-84.1" font-family="Times Roman,serif" font-size="11.00" fill="gray">OAuth</text>
</g>
<!-- \\Geocaching\\Api\\GeocachingApi -->
<g id="node4" class="node"><title>\\Geocaching\\Api\\GeocachingApi</title>
<polygon fill="none" stroke="black" points="368,-150 264,-150 264,-114 368,-114 368,-150"/>
<text text-anchor="middle" x="316" y="-129.1" font-family="Courier,monospace" font-size="11.00">GeocachingApi</text>
</g>
<!-- \\Geocaching\\Api\\AbstractGeocachingApi -->
<g id="node5" class="node"><title>\\Geocaching\\Api\\AbstractGeocachingApi</title>
<polygon fill="none" stroke="black" points="191,-150 33,-150 33,-114 191,-114 191,-150"/>
<text text-anchor="start" x="78" y="-137.433" font-family="Courier,monospace" font-size="11.00">«abstract»</text>
<text text-anchor="start" x="41" y="-124.233" font-family="Courier,monospace" font-size="11.00">AbstractGeocachingApi</text>
</g>
<!-- \\Geocaching\\Api\\GeocachingApi&#45;&gt;\\Geocaching\\Api\\AbstractGeocachingApi -->
<g id="edge6" class="edge"><title>\\Geocaching\\Api\\GeocachingApi&#45;&gt;\\Geocaching\\Api\\AbstractGeocachingApi</title>
<path fill="none" stroke="black" d="M263.994,-132C245.039,-132 223.024,-132 201.733,-132"/>
<polygon fill="none" stroke="black" points="201.687,-128.5 191.687,-132 201.686,-135.5 201.687,-128.5"/>
</g>
<!-- \\Geocaching\\OAuth\\OAuth -->
<g id="node7" class="node"><title>\\Geocaching\\OAuth\\OAuth</title>
<polygon fill="none" stroke="black" points="343,-68 289,-68 289,-32 343,-32 343,-68"/>
<text text-anchor="middle" x="316" y="-47.1" font-family="Courier,monospace" font-size="11.00">OAuth</text>
</g>
</g>
</svg>
