<?xml version="1.0" encoding="UTF-8" standalone="no"?>
<!DOCTYPE svg PUBLIC "-//W3C//DTD SVG 1.1//EN"
 "http://www.w3.org/Graphics/SVG/1.1/DTD/svg11.dtd">
<!-- Generated by graphviz version 2.26.3 (20100126.1600)
 -->
<!-- Title: G Pages: 1 -->
<svg width="408pt" height="256pt"
 viewBox="0.00 0.00 408.00 256.00" xmlns="http://www.w3.org/2000/svg" xmlns:xlink="http://www.w3.org/1999/xlink">
<g id="graph1" class="graph" transform="scale(1 1) rotate(0) translate(4 252)">
<title>G</title>
<polygon fill="white" stroke="white" points="-4,5 -4,-252 405,-252 405,5 -4,5"/>
<g id="graph2" class="cluster"><title>cluster_Global</title>
<polyline fill="none" stroke="gray" points="20,-8 380,-8 "/>
<path fill="none" stroke="gray" d="M380,-8C386,-8 392,-14 392,-20"/>
<polyline fill="none" stroke="gray" points="392,-20 392,-228 "/>
<path fill="none" stroke="gray" d="M392,-228C392,-234 386,-240 380,-240"/>
<polyline fill="none" stroke="gray" points="380,-240 20,-240 "/>
<path fill="none" stroke="gray" d="M20,-240C14,-240 8,-234 8,-228"/>
<polyline fill="none" stroke="gray" points="8,-228 8,-20 "/>
<path fill="none" stroke="gray" d="M8,-20C8,-14 14,-8 20,-8"/>
<text text-anchor="middle" x="200" y="-226.1" font-family="Times Roman,serif" font-size="11.00" fill="gray">Global</text>
</g>
<g id="graph3" class="cluster"><title>cluster_\Geocaching</title>
<polyline fill="none" stroke="gray" points="28,-16 372,-16 "/>
<path fill="none" stroke="gray" d="M372,-16C378,-16 384,-22 384,-28"/>
<polyline fill="none" stroke="gray" points="384,-28 384,-198 "/>
<path fill="none" stroke="gray" d="M384,-198C384,-204 378,-210 372,-210"/>
<polyline fill="none" stroke="gray" points="372,-210 28,-210 "/>
<path fill="none" stroke="gray" d="M28,-210C22,-210 16,-204 16,-198"/>
<polyline fill="none" stroke="gray" points="16,-198 16,-28 "/>
<path fill="none" stroke="gray" d="M16,-28C16,-22 22,-16 28,-16"/>
<text text-anchor="middle" x="200" y="-196.1" font-family="Times Roman,serif" font-size="11.00" fill="gray">Geocaching</text>
</g>
<g id="graph4" class="cluster"><title>cluster_\Geocaching\OAuth</title>
<polyline fill="none" stroke="gray" points="293,-106 339,-106 "/>
<path fill="none" stroke="gray" d="M339,-106C345,-106 351,-112 351,-118"/>
<polyline fill="none" stroke="gray" points="351,-118 351,-168 "/>
<path fill="none" stroke="gray" d="M351,-168C351,-174 345,-180 339,-180"/>
<polyline fill="none" stroke="gray" points="339,-180 293,-180 "/>
<path fill="none" stroke="gray" d="M293,-180C287,-180 281,-174 281,-168"/>
<polyline fill="none" stroke="gray" points="281,-168 281,-118 "/>
<path fill="none" stroke="gray" d="M281,-118C281,-112 287,-106 293,-106"/>
<text text-anchor="middle" x="316" y="-166.1" font-family="Times Roman,serif" font-size="11.00" fill="gray">OAuth</text>
</g>
<g id="graph5" class="cluster"><title>cluster_\Geocaching\Api</title>
<polyline fill="none" stroke="gray" points="36,-24 364,-24 "/>
<path fill="none" stroke="gray" d="M364,-24C370,-24 376,-30 376,-36"/>
<polyline fill="none" stroke="gray" points="376,-36 376,-86 "/>
<path fill="none" stroke="gray" d="M376,-86C376,-92 370,-98 364,-98"/>
<polyline fill="none" stroke="gray" points="364,-98 36,-98 "/>
<path fill="none" stroke="gray" d="M36,-98C30,-98 24,-92 24,-86"/>
<polyline fill="none" stroke="gray" points="24,-86 24,-36 "/>
<path fill="none" stroke="gray" d="M24,-36C24,-30 30,-24 36,-24"/>
<text text-anchor="middle" x="200" y="-84.1" font-family="Times Roman,serif" font-size="11.00" fill="gray">Api</text>
</g>
<!-- \\Geocaching\\OAuth\\OAuth -->
<g id="node4" class="node"><title>\\Geocaching\\OAuth\\OAuth</title>
<polygon fill="none" stroke="black" points="343,-150 289,-150 289,-114 343,-114 343,-150"/>
<text text-anchor="middle" x="316" y="-129.1" font-family="Courier,monospace" font-size="11.00">OAuth</text>
</g>
<!-- \\Geocaching\\Api\\AbstractGeocachingApi -->
<g id="node6" class="node"><title>\\Geocaching\\Api\\AbstractGeocachingApi</title>
<polygon fill="none" stroke="black" points="191,-68 33,-68 33,-32 191,-32 191,-68"/>
<text text-anchor="start" x="78" y="-55.4333" font-family="Courier,monospace" font-size="11.00">«abstract»</text>
<text text-anchor="start" x="41" y="-42.2333" font-family="Courier,monospace" font-size="11.00">AbstractGeocachingApi</text>
</g>
<!-- \\Geocaching\\Api\\GeocachingApi -->
<g id="node7" class="node"><title>\\Geocaching\\Api\\GeocachingApi</title>
<polygon fill="none" stroke="black" points="368,-68 264,-68 264,-32 368,-32 368,-68"/>
<text text-anchor="middle" x="316" y="-47.1" font-family="Courier,monospace" font-size="11.00">GeocachingApi</text>
</g>
<!-- \\Geocaching\\Api\\GeocachingApi&#45;&gt;\\Geocaching\\Api\\AbstractGeocachingApi -->
<g id="edge6" class="edge"><title>\\Geocaching\\Api\\GeocachingApi&#45;&gt;\\Geocaching\\Api\\AbstractGeocachingApi</title>
<path fill="none" stroke="black" d="M263.994,-50C245.039,-50 223.024,-50 201.733,-50"/>
<polygon fill="none" stroke="black" points="201.687,-46.5001 191.687,-50 201.686,-53.5001 201.687,-46.5001"/>
</g>
</g>
</svg>
