<?xml version="1.0" encoding="UTF-8" standalone="no"?>
<!DOCTYPE svg PUBLIC "-//W3C//DTD SVG 1.1//EN"
 "http://www.w3.org/Graphics/SVG/1.1/DTD/svg11.dtd">
<!-- Generated by graphviz version 2.26.3 (20100126.1600)
 -->
<!-- Title: G Pages: 1 -->
<svg width="370pt" height="206pt"
 viewBox="0.00 0.00 370.00 206.00" xmlns="http://www.w3.org/2000/svg" xmlns:xlink="http://www.w3.org/1999/xlink">
<g id="graph1" class="graph" transform="scale(1 1) rotate(0) translate(4 202)">
<title>G</title>
<polygon fill="white" stroke="white" points="-4,5 -4,-202 367,-202 367,5 -4,5"/>
<g id="graph2" class="cluster"><title>cluster_global</title>
<polyline fill="none" stroke="gray" points="20,-8 342,-8 "/>
<path fill="none" stroke="gray" d="M342,-8C348,-8 354,-14 354,-20"/>
<polyline fill="none" stroke="gray" points="354,-20 354,-178 "/>
<path fill="none" stroke="gray" d="M354,-178C354,-184 348,-190 342,-190"/>
<polyline fill="none" stroke="gray" points="342,-190 20,-190 "/>
<path fill="none" stroke="gray" d="M20,-190C14,-190 8,-184 8,-178"/>
<polyline fill="none" stroke="gray" points="8,-178 8,-20 "/>
<path fill="none" stroke="gray" d="M8,-20C8,-14 14,-8 20,-8"/>
<text text-anchor="middle" x="181" y="-176.1" font-family="Times Roman,serif" font-size="11.00" fill="gray">global</text>
</g>
<!-- \\Geocaching_Api -->
<g id="node2" class="node"><title>\\Geocaching_Api</title>
<a xlink:href="Geocaching_Api.class.html" xlink:title="«abstract»&lt;br/&gt;Geocaching_Api" target="_parent">
<polygon fill="none" stroke="black" points="128,-133 16,-133 16,-97 128,-97 128,-133"/>
<text text-anchor="start" x="38" y="-120.433" font-family="Courier,monospace" font-size="11.00">«abstract»</text>
<text text-anchor="start" x="24.5" y="-107.233" font-family="Courier,monospace" font-size="11.00">Geocaching_Api</text>
</a>
</g>
<!-- \\Geocaching_Api_Json -->
<g id="node3" class="node"><title>\\Geocaching_Api_Json</title>
<a xlink:href="Geocaching_Api_Json.class.html" xlink:title="Geocaching_Api_Json" target="_parent">
<polygon fill="none" stroke="black" points="345,-160 201,-160 201,-124 345,-124 345,-160"/>
<text text-anchor="middle" x="273" y="-139.1" font-family="Courier,monospace" font-size="11.00">Geocaching_Api_Json</text>
</a>
</g>
<!-- \\Geocaching_Api_Json&#45;&gt;\\Geocaching_Api -->
<g id="edge3" class="edge"><title>\\Geocaching_Api_Json&#45;&gt;\\Geocaching_Api</title>
<path fill="none" stroke="black" d="M200.434,-132.252C180.041,-129.513 157.98,-126.55 137.992,-123.865"/>
<polygon fill="none" stroke="black" points="138.433,-120.393 128.056,-122.53 137.501,-127.33 138.433,-120.393"/>
</g>
<!-- \\Geocaching_Api_Xml -->
<g id="node4" class="node"><title>\\Geocaching_Api_Xml</title>
<a xlink:href="Geocaching_Api_Xml.class.html" xlink:title="Geocaching_Api_Xml" target="_parent">
<polygon fill="none" stroke="black" points="342,-106 204,-106 204,-70 342,-70 342,-106"/>
<text text-anchor="middle" x="273" y="-85.1" font-family="Courier,monospace" font-size="11.00">Geocaching_Api_Xml</text>
</a>
</g>
<!-- \\Geocaching_Api_Xml&#45;&gt;\\Geocaching_Api -->
<g id="edge5" class="edge"><title>\\Geocaching_Api_Xml&#45;&gt;\\Geocaching_Api</title>
<path fill="none" stroke="black" d="M203.827,-97.2919C182.65,-100.137 159.411,-103.258 138.422,-106.078"/>
<polygon fill="none" stroke="black" points="137.763,-102.635 128.318,-107.435 138.695,-109.572 137.763,-102.635"/>
</g>
<!-- \\Geocaching_OAuth -->
<g id="node5" class="node"><title>\\Geocaching_OAuth</title>
<a xlink:href="Geocaching_OAuth.class.html" xlink:title="Geocaching_OAuth" target="_parent">
<polygon fill="none" stroke="black" points="335,-52 211,-52 211,-16 335,-16 335,-52"/>
<text text-anchor="middle" x="273" y="-31.1" font-family="Courier,monospace" font-size="11.00">Geocaching_OAuth</text>
</a>
</g>
</g>
</svg>
