<?xml version="1.0" encoding="UTF-8" standalone="no"?>
<!DOCTYPE svg PUBLIC "-//W3C//DTD SVG 1.1//EN"
 "http://www.w3.org/Graphics/SVG/1.1/DTD/svg11.dtd">
<!-- Generated by graphviz version 2.26.3 (20100126.1600)
 -->
<!-- Title: G Pages: 1 -->
<svg width="294pt" height="392pt"
 viewBox="0.00 0.00 294.00 392.00" xmlns="http://www.w3.org/2000/svg" xmlns:xlink="http://www.w3.org/1999/xlink">
<g id="graph1" class="graph" transform="scale(1 1) rotate(0) translate(4 388)">
<title>G</title>
<polygon fill="white" stroke="white" points="-4,5 -4,-388 291,-388 291,5 -4,5"/>
<g id="graph2" class="cluster"><title>cluster_Global</title>
<polyline fill="none" stroke="gray" points="20,-8 266,-8 "/>
<path fill="none" stroke="gray" d="M266,-8C272,-8 278,-14 278,-20"/>
<polyline fill="none" stroke="gray" points="278,-20 278,-364 "/>
<path fill="none" stroke="gray" d="M278,-364C278,-370 272,-376 266,-376"/>
<polyline fill="none" stroke="gray" points="266,-376 20,-376 "/>
<path fill="none" stroke="gray" d="M20,-376C14,-376 8,-370 8,-364"/>
<polyline fill="none" stroke="gray" points="8,-364 8,-20 "/>
<path fill="none" stroke="gray" d="M8,-20C8,-14 14,-8 20,-8"/>
<text text-anchor="middle" x="143" y="-362.1" font-family="Times Roman,serif" font-size="11.00" fill="gray">\</text>
</g>
<g id="graph3" class="cluster"><title>cluster_\Geocaching</title>
<polyline fill="none" stroke="gray" points="28,-16 258,-16 "/>
<path fill="none" stroke="gray" d="M258,-16C264,-16 270,-22 270,-28"/>
<polyline fill="none" stroke="gray" points="270,-28 270,-334 "/>
<path fill="none" stroke="gray" d="M270,-334C270,-340 264,-346 258,-346"/>
<polyline fill="none" stroke="gray" points="258,-346 28,-346 "/>
<path fill="none" stroke="gray" d="M28,-346C22,-346 16,-340 16,-334"/>
<polyline fill="none" stroke="gray" points="16,-334 16,-28 "/>
<path fill="none" stroke="gray" d="M16,-28C16,-22 22,-16 28,-16"/>
<text text-anchor="middle" x="143" y="-332.1" font-family="Times Roman,serif" font-size="11.00" fill="gray">Geocaching</text>
</g>
<g id="graph4" class="cluster"><title>cluster_\Geocaching\Api</title>
<polyline fill="none" stroke="gray" points="36,-188 245,-188 "/>
<path fill="none" stroke="gray" d="M245,-188C251,-188 257,-194 257,-200"/>
<polyline fill="none" stroke="gray" points="257,-200 257,-304 "/>
<path fill="none" stroke="gray" d="M257,-304C257,-310 251,-316 245,-316"/>
<polyline fill="none" stroke="gray" points="245,-316 36,-316 "/>
<path fill="none" stroke="gray" d="M36,-316C30,-316 24,-310 24,-304"/>
<polyline fill="none" stroke="gray" points="24,-304 24,-200 "/>
<path fill="none" stroke="gray" d="M24,-200C24,-194 30,-188 36,-188"/>
<text text-anchor="middle" x="140.5" y="-302.1" font-family="Times Roman,serif" font-size="11.00" fill="gray">Api</text>
</g>
<g id="graph5" class="cluster"><title>cluster_\Geocaching\Log</title>
<polyline fill="none" stroke="gray" points="194,-106 250,-106 "/>
<path fill="none" stroke="gray" d="M250,-106C256,-106 262,-112 262,-118"/>
<polyline fill="none" stroke="gray" points="262,-118 262,-168 "/>
<path fill="none" stroke="gray" d="M262,-168C262,-174 256,-180 250,-180"/>
<polyline fill="none" stroke="gray" points="250,-180 194,-180 "/>
<path fill="none" stroke="gray" d="M194,-180C188,-180 182,-174 182,-168"/>
<polyline fill="none" stroke="gray" points="182,-168 182,-118 "/>
<path fill="none" stroke="gray" d="M182,-118C182,-112 188,-106 194,-106"/>
<text text-anchor="middle" x="222" y="-166.1" font-family="Times Roman,serif" font-size="11.00" fill="gray">Log</text>
</g>
<g id="graph6" class="cluster"><title>cluster_\Geocaching\OAuth</title>
<polyline fill="none" stroke="gray" points="199,-24 245,-24 "/>
<path fill="none" stroke="gray" d="M245,-24C251,-24 257,-30 257,-36"/>
<polyline fill="none" stroke="gray" points="257,-36 257,-86 "/>
<path fill="none" stroke="gray" d="M257,-86C257,-92 251,-98 245,-98"/>
<polyline fill="none" stroke="gray" points="245,-98 199,-98 "/>
<path fill="none" stroke="gray" d="M199,-98C193,-98 187,-92 187,-86"/>
<polyline fill="none" stroke="gray" points="187,-86 187,-36 "/>
<path fill="none" stroke="gray" d="M187,-36C187,-30 193,-24 199,-24"/>
<text text-anchor="middle" x="222" y="-84.1" font-family="Times Roman,serif" font-size="11.00" fill="gray">OAuth</text>
</g>
<!-- \\Geocaching\\Api\\Json -->
<g id="node4" class="node"><title>\\Geocaching\\Api\\Json</title>
<polygon fill="none" stroke="black" points="249,-286 195,-286 195,-250 249,-250 249,-286"/>
<text text-anchor="middle" x="222" y="-265.1" font-family="Courier,monospace" font-size="11.00">Json</text>
</g>
<!-- \\Geocaching\\Api\\Api -->
<g id="node5" class="node"><title>\\Geocaching\\Api\\Api</title>
<polygon fill="none" stroke="black" points="117,-259 33,-259 33,-223 117,-223 117,-259"/>
<text text-anchor="start" x="41" y="-246.433" font-family="Courier,monospace" font-size="11.00">«abstract»</text>
<text text-anchor="start" x="64.5" y="-233.233" font-family="Courier,monospace" font-size="11.00">Api</text>
</g>
<!-- \\Geocaching\\Api\\Json&#45;&gt;\\Geocaching\\Api\\Api -->
<g id="edge7" class="edge"><title>\\Geocaching\\Api\\Json&#45;&gt;\\Geocaching\\Api\\Api</title>
<path fill="none" stroke="black" d="M194.695,-262.985C175.89,-259.531 150.3,-254.831 127.608,-250.663"/>
<polygon fill="none" stroke="black" points="128.224,-247.217 117.756,-248.853 126.959,-254.102 128.224,-247.217"/>
</g>
<!-- \\Geocaching\\Api\\Xml -->
<g id="node6" class="node"><title>\\Geocaching\\Api\\Xml</title>
<polygon fill="none" stroke="black" points="249,-232 195,-232 195,-196 249,-196 249,-232"/>
<text text-anchor="middle" x="222" y="-211.1" font-family="Courier,monospace" font-size="11.00">Xml</text>
</g>
<!-- \\Geocaching\\Api\\Xml&#45;&gt;\\Geocaching\\Api\\Api -->
<g id="edge9" class="edge"><title>\\Geocaching\\Api\\Xml&#45;&gt;\\Geocaching\\Api\\Api</title>
<path fill="none" stroke="black" d="M194.695,-219.015C175.89,-222.469 150.3,-227.169 127.608,-231.337"/>
<polygon fill="none" stroke="black" points="126.959,-227.898 117.756,-233.147 128.224,-234.783 126.959,-227.898"/>
</g>
<!-- \\Geocaching\\Log\\KLogger -->
<g id="node8" class="node"><title>\\Geocaching\\Log\\KLogger</title>
<polygon fill="none" stroke="black" points="254,-150 190,-150 190,-114 254,-114 254,-150"/>
<text text-anchor="middle" x="222" y="-129.1" font-family="Courier,monospace" font-size="11.00">KLogger</text>
</g>
<!-- \\Geocaching\\OAuth\\OAuth -->
<g id="node10" class="node"><title>\\Geocaching\\OAuth\\OAuth</title>
<polygon fill="none" stroke="black" points="249,-68 195,-68 195,-32 249,-32 249,-68"/>
<text text-anchor="middle" x="222" y="-47.1" font-family="Courier,monospace" font-size="11.00">OAuth</text>
</g>
</g>
</svg>
